<svg width="18" height="18" viewBox="0 0 18 18" fill="none" xmlns="http://www.w3.org/2000/svg">
<path d="M11.9844 4.08035L10.3939 1.94693C10.2155 1.70925 9.98689 1.5169 9.72587 1.38461C9.46485 1.25233 9.17816 1.18359 8.88762 1.18359C8.59707 1.18359 8.31038 1.25233 8.04936 1.38461C7.78834 1.5169 7.55994 1.70925 7.38149 1.94693L5.79103 4.08035C5.56761 4.38095 5.26648 4.60963 4.92265 4.73984L2.47654 5.65323C2.19726 5.75193 1.9439 5.91643 1.73629 6.13376C1.52868 6.35109 1.37243 6.61534 1.27996 6.90579C1.18749 7.19624 1.1612 7.50493 1.20323 7.80767C1.24527 8.11041 1.35452 8.39892 1.52226 8.65054L2.98551 10.8829C3.18669 11.1971 3.29705 11.5644 3.30361 11.9415L3.38624 14.6354C3.39236 14.9405 3.46658 15.24 3.60291 15.5105C3.73923 15.781 3.93405 16.015 4.17215 16.1945C4.41025 16.3739 4.68506 16.4939 4.9753 16.5449C5.26553 16.5959 5.56323 16.5766 5.84508 16.4885L8.3454 15.7368C8.69538 15.6306 9.06727 15.6306 9.41725 15.7368L11.9176 16.4885C12.1994 16.5766 12.4971 16.5959 12.7874 16.5449C13.0776 16.4939 13.3524 16.3739 13.5905 16.1945C13.8286 16.015 14.0234 15.781 14.1597 15.5105C14.2961 15.24 14.3703 14.9405 14.3764 14.6354L14.459 11.9415C14.4677 11.5648 14.5779 11.198 14.7771 10.8829L16.2404 8.65054C16.4052 8.39904 16.5123 8.11182 16.5537 7.81081C16.595 7.5098 16.5695 7.20304 16.479 6.91384C16.3884 6.62464 16.2353 6.36069 16.0313 6.14221C15.8274 5.92374 15.5778 5.75649 15.302 5.65323L12.8527 4.73984C12.5089 4.60963 12.2078 4.38095 11.9844 4.08035Z" fill="#E95322" stroke="#E95322" stroke-width="1.18378" stroke-linecap="round" stroke-linejoin="round"/>
</svg>
