<svg width="18" height="16" viewBox="0 0 18 16" fill="none" xmlns="http://www.w3.org/2000/svg">
<path d="M0.686855 11.4526H5.48392M12.4486 11.4526H17.243M14.6162 5.40769H13.842M2.92006 3.56504V1.93481M17.1171 6.31111L17.0961 6.29319C16.9363 5.69061 16.65 5.12695 16.2552 4.63794C15.8603 4.14894 15.3657 3.74524 14.8025 3.45244C14.1955 3.15378 13.5529 2.92943 12.8895 2.78448L12.858 2.57462C12.8488 2.32354 12.7983 2.07554 12.7084 1.84012C12.6164 1.61161 12.475 1.4051 12.2939 1.23464C12.1128 1.06418 11.8961 0.933758 11.6587 0.852248C10.8518 0.589136 10.0027 0.471205 9.15258 0.504195H8.80617C7.95607 0.471205 7.10692 0.589136 6.30006 0.852248C6.06237 0.933307 5.84547 1.06357 5.66428 1.23409C5.48309 1.40461 5.3419 1.61135 5.25037 1.84012C5.16286 2.06281 5.11321 2.29794 5.1034 2.53623L5.03517 2.79216C4.38293 2.93731 3.75116 3.15901 3.15363 3.45244C2.59085 3.74574 2.09648 4.1496 1.70172 4.63853C1.30697 5.12746 1.02041 5.69086 0.860067 6.29319L0.841679 6.31111C0.586245 7.21126 0.473842 8.14428 0.508399 9.07765C0.462464 10.061 0.583041 11.045 0.865288 11.9901C1.50822 14.3113 4.14556 15.1635 6.80914 15.4246H6.88263L7.16603 15.4502L7.38386 15.4655H7.5177L7.76436 15.4809H7.8431L8.30234 15.4988H9.68268L10.1419 15.4809H10.218L10.4804 15.4655H10.6143L10.8295 15.4502L11.1129 15.4246H11.1863C13.8525 15.1686 16.4899 14.3113 17.1302 11.9901C17.4133 11.0451 17.5348 10.0611 17.4897 9.07765C17.5102 8.14237 17.3846 7.20949 17.1171 6.31111ZM8.96626 13.0112C8.96626 13.0112 11.8896 13.2211 12.9026 10.585C13.304 9.54492 13.304 8.39796 12.9026 7.35783C11.8765 4.72182 8.96626 4.93167 8.96626 4.93167C8.96626 4.93167 6.04288 4.72182 5.02994 7.35783C4.62854 8.39796 4.62854 9.54492 5.02994 10.585C6.04288 13.2211 8.96626 13.0112 8.96626 13.0112ZM8.96628 10.4443C8.96628 10.4443 10.0317 10.5211 10.407 9.56134C10.5513 9.18154 10.5513 8.76389 10.407 8.38409C10.0317 7.42182 8.96628 7.49859 8.96628 7.49859C8.96628 7.49859 7.90082 7.42182 7.52555 8.38409C7.37866 8.76343 7.37866 9.182 7.52555 9.56134C7.90082 10.5211 8.96628 10.4443 8.96628 10.4443Z" stroke="#F8F8F8" stroke-width="0.997761" stroke-linecap="round" stroke-linejoin="round"/>
</svg>
