<svg width="17" height="17" viewBox="0 0 17 17" fill="none" xmlns="http://www.w3.org/2000/svg">
<path d="M4.20635 10.1337C4.28968 10.478 4.49622 10.7839 4.79049 10.9988C5.08475 11.2138 5.44839 11.3242 5.81886 11.3113H14.1336C14.5037 11.3241 14.8669 11.2135 15.1607 10.9986C15.4545 10.7836 15.6605 10.4778 15.7433 10.1337L16.4683 5.38735C16.5174 5.14592 16.5094 4.89711 16.4451 4.65895C16.3808 4.42079 16.2618 4.19923 16.0966 4.01031C15.9314 3.8214 15.7243 3.66984 15.4901 3.56664C15.2559 3.46344 15.0006 3.41121 14.7427 3.41364H3.10137M4.20635 10.1337L3.10137 3.41364M4.20635 10.1337C4.20635 10.1337 4.54859 13.7108 8.29561 13.86H15.0066M3.10137 3.41364L2.77652 1.44262C2.72512 1.17832 2.57848 0.939452 2.36188 0.767323C2.14529 0.595195 1.8724 0.500655 1.59039 0.5H0.5M7.60535 15.1786C7.60535 15.9084 6.98469 16.5 6.21907 16.5C5.45345 16.5 4.83279 15.9084 4.83279 15.1786C4.83279 14.4489 5.45345 13.8573 6.21907 13.8573C6.98469 13.8573 7.60535 14.4489 7.60535 15.1786ZM16.3928 15.1786C16.3928 15.9084 15.7722 16.5 15.0066 16.5C14.2409 16.5 13.6203 15.9084 13.6203 15.1786C13.6203 14.4489 14.2409 13.8573 15.0066 13.8573C15.7722 13.8573 16.3928 14.4489 16.3928 15.1786Z" stroke="#E95322" stroke-linecap="round" stroke-linejoin="round"/>
</svg>
