<svg width="24" height="24" viewBox="0 0 24 24" fill="none" xmlns="http://www.w3.org/2000/svg">
<path d="M13.3098 23.0373C13.3098 21.5152 13.3098 18.5723 13.3098 16.7807H16.1091C16.2437 16.7807 16.3728 16.7273 16.4679 16.6321C16.5631 16.537 16.6165 16.4079 16.6165 16.2734V13.1731C16.6165 13.0385 16.5631 12.9094 16.4679 12.8143C16.3728 12.7191 16.2437 12.6657 16.1091 12.6657H13.3098C13.3098 11.455 13.3098 11.5984 13.3098 10.8426C13.3107 10.5156 13.4413 10.2023 13.6728 9.97143C13.9044 9.74054 14.218 9.61087 14.545 9.61087H16.599V6.4091C16.5981 6.16935 16.5022 5.93972 16.3324 5.77052C16.1625 5.60131 15.9325 5.50631 15.6928 5.50631H13.1278C12.5888 5.50631 12.0551 5.61248 11.5571 5.81875C11.0591 6.02503 10.6066 6.32737 10.2255 6.70851C9.84433 7.08966 9.542 7.54214 9.33572 8.04013C9.12945 8.53812 9.02326 9.07185 9.02326 9.61087C9.02326 9.61087 8.97779 10.2057 8.94979 12.6657H6.24141C6.09107 12.6657 5.94689 12.7254 5.84058 12.8317C5.73427 12.938 5.67455 13.0822 5.67455 13.2325V16.2139C5.67408 16.2884 5.68842 16.3624 5.71675 16.4313C5.74507 16.5003 5.78678 16.563 5.83951 16.6157C5.89224 16.6685 5.95492 16.7102 6.02391 16.7385C6.0929 16.7669 6.16684 16.7812 6.24141 16.7807H8.91827C8.91827 18.5828 8.91827 21.1722 8.96726 22.7679M8.97428 22.7364C6.59858 22.0909 4.50181 20.6805 3.00838 18.7235C1.51494 16.7664 0.708093 14.3717 0.712666 11.9099C0.712666 8.9401 1.89238 6.09199 3.99231 3.99206C6.09224 1.89213 8.94036 0.712402 11.9101 0.712402C14.8799 0.712402 17.728 1.89213 19.8279 3.99206C21.9278 6.09199 23.1076 8.9401 23.1076 11.9099C23.1093 14.6385 22.1148 17.2738 20.3106 19.3209C18.5065 21.3679 16.017 22.6857 13.3098 23.0268" stroke="#E95322" stroke-width="1.42515" stroke-linecap="round" stroke-linejoin="round"/>
</svg>
