<svg width="12" height="9" viewBox="0 0 12 9" fill="none" xmlns="http://www.w3.org/2000/svg">
<path d="M5.23077 2.46131H11.3846M5.23077 2.46131C5.23077 3.31098 4.54198 3.99977 3.69231 3.99977C2.84264 3.99977 2.15385 3.31098 2.15385 2.46131M5.23077 2.46131C5.23077 1.61164 4.54198 0.922852 3.69231 0.922852C2.84264 0.922852 2.15385 1.61164 2.15385 2.46131M0.615387 2.46131H2.15385M9.07693 6.30747H11.3846M9.07693 6.30747C9.07693 7.15714 8.38813 7.84593 7.53846 7.84593C6.6888 7.84593 6 7.15714 6 6.30747M9.07693 6.30747C9.07693 5.4578 8.38813 4.76901 7.53846 4.76901C6.6888 4.76901 6 5.4578 6 6.30747M0.615387 6.30747H6" stroke="#F5F5F5" stroke-linecap="round" stroke-linejoin="round"/>
</svg>
