<svg width="19" height="19" viewBox="0 0 19 19" fill="none" xmlns="http://www.w3.org/2000/svg">
<path d="M12.4778 4.08035L10.8873 1.94693C10.7089 1.70925 10.4803 1.5169 10.2193 1.38461C9.95826 1.25233 9.67157 1.18359 9.38102 1.18359C9.09048 1.18359 8.80379 1.25233 8.54277 1.38461C8.28175 1.5169 8.05334 1.70925 7.8749 1.94693L6.28444 4.08035C6.06102 4.38095 5.75989 4.60963 5.41605 4.73984L2.96994 5.65323C2.69067 5.75193 2.43731 5.91643 2.2297 6.13376C2.02208 6.35109 1.86584 6.61534 1.77337 6.90579C1.6809 7.19624 1.65461 7.50493 1.69664 7.80767C1.73868 8.11041 1.84793 8.39892 2.01567 8.65054L3.47892 10.8829C3.6801 11.1971 3.79046 11.5644 3.79701 11.9415L3.87964 14.6354C3.88577 14.9405 3.95999 15.24 4.09631 15.5105C4.23264 15.781 4.42745 16.015 4.66556 16.1945C4.90366 16.3739 5.17847 16.4939 5.46871 16.5449C5.75894 16.5959 6.05663 16.5766 6.33849 16.4885L8.83881 15.7368C9.18879 15.6306 9.56067 15.6306 9.91066 15.7368L12.411 16.4885C12.6928 16.5766 12.9905 16.5959 13.2808 16.5449C13.571 16.4939 13.8458 16.3739 14.0839 16.1945C14.322 16.015 14.5168 15.781 14.6532 15.5105C14.7895 15.24 14.8637 14.9405 14.8698 14.6354L14.9525 11.9415C14.9611 11.5648 15.0713 11.198 15.2705 10.8829L16.7338 8.65054C16.8986 8.39904 17.0057 8.11182 17.0471 7.81081C17.0884 7.5098 17.0629 7.20304 16.9724 6.91384C16.8818 6.62464 16.7287 6.36069 16.5247 6.14221C16.3208 5.92374 16.0712 5.75649 15.7954 5.65323L13.3462 4.73984C13.0023 4.60963 12.7012 4.38095 12.4778 4.08035Z" stroke="#E95322" stroke-width="1.18378" stroke-linecap="round" stroke-linejoin="round"/>
</svg>
